<mxfile host="app.diagrams.net" modified="2023-09-07T01:32:19.046Z" agent="Mozilla/5.0 (Windows NT 10.0; Win64; x64) AppleWebKit/537.36 (KHTML, like Gecko) Chrome/116.0.0.0 Safari/537.36 Edg/116.0.1938.62" etag="LFGn77iU6vxx6xZdZth6" version="21.7.2" type="github">
  <diagram name="Page-1" id="2YBvvXClWsGukQMizWep">
    <mxGraphModel dx="3411" dy="1312" grid="1" gridSize="10" guides="1" tooltips="1" connect="1" arrows="1" fold="1" page="1" pageScale="1" pageWidth="850" pageHeight="1100" math="0" shadow="0">
      <root>
        <mxCell id="0" />
        <mxCell id="1" parent="0" />
        <mxCell id="aM9ryv3xv72pqoxQDRHE-1" value="PM" style="shape=umlLifeline;perimeter=lifelinePerimeter;whiteSpace=wrap;html=1;container=0;dropTarget=0;collapsible=0;recursiveResize=0;outlineConnect=0;portConstraint=eastwest;newEdgeStyle={&quot;edgeStyle&quot;:&quot;elbowEdgeStyle&quot;,&quot;elbow&quot;:&quot;vertical&quot;,&quot;curved&quot;:0,&quot;rounded&quot;:0};" parent="1" vertex="1">
          <mxGeometry x="90" y="40" width="100" height="300" as="geometry" />
        </mxCell>
        <mxCell id="aM9ryv3xv72pqoxQDRHE-2" value="" style="html=1;points=[];perimeter=orthogonalPerimeter;outlineConnect=0;targetShapes=umlLifeline;portConstraint=eastwest;newEdgeStyle={&quot;edgeStyle&quot;:&quot;elbowEdgeStyle&quot;,&quot;elbow&quot;:&quot;vertical&quot;,&quot;curved&quot;:0,&quot;rounded&quot;:0};" parent="aM9ryv3xv72pqoxQDRHE-1" vertex="1">
          <mxGeometry x="45" y="70" width="10" height="30" as="geometry" />
        </mxCell>
        <mxCell id="aM9ryv3xv72pqoxQDRHE-3" value="Market req" style="html=1;verticalAlign=bottom;startArrow=oval;endArrow=block;startSize=8;edgeStyle=elbowEdgeStyle;elbow=vertical;curved=0;rounded=0;" parent="aM9ryv3xv72pqoxQDRHE-1" target="aM9ryv3xv72pqoxQDRHE-2" edge="1">
          <mxGeometry relative="1" as="geometry">
            <mxPoint x="-15" y="70" as="sourcePoint" />
          </mxGeometry>
        </mxCell>
        <mxCell id="aM9ryv3xv72pqoxQDRHE-5" value="&#xa;&lt;span style=&quot;color: rgb(0, 0, 0); font-family: Helvetica; font-size: 12px; font-style: normal; font-variant-ligatures: normal; font-variant-caps: normal; font-weight: 400; letter-spacing: normal; orphans: 2; text-align: center; text-indent: 0px; text-transform: none; widows: 2; word-spacing: 0px; -webkit-text-stroke-width: 0px; background-color: rgb(251, 251, 251); text-decoration-thickness: initial; text-decoration-style: initial; text-decoration-color: initial; float: none; display: inline !important;&quot;&gt;4.private build&lt;/span&gt;&#xa;&#xa;" style="shape=umlLifeline;perimeter=lifelinePerimeter;whiteSpace=wrap;html=1;container=0;dropTarget=0;collapsible=0;recursiveResize=0;outlineConnect=0;portConstraint=eastwest;newEdgeStyle={&quot;edgeStyle&quot;:&quot;elbowEdgeStyle&quot;,&quot;elbow&quot;:&quot;vertical&quot;,&quot;curved&quot;:0,&quot;rounded&quot;:0};" parent="1" vertex="1">
          <mxGeometry x="300" y="40" width="100" height="920" as="geometry" />
        </mxCell>
        <mxCell id="aM9ryv3xv72pqoxQDRHE-6" value="1.prepare basic env" style="html=1;points=[];perimeter=orthogonalPerimeter;outlineConnect=0;targetShapes=umlLifeline;portConstraint=eastwest;newEdgeStyle={&quot;edgeStyle&quot;:&quot;elbowEdgeStyle&quot;,&quot;elbow&quot;:&quot;vertical&quot;,&quot;curved&quot;:0,&quot;rounded&quot;:0};" parent="aM9ryv3xv72pqoxQDRHE-5" vertex="1">
          <mxGeometry x="45" y="80" width="10" height="60" as="geometry" />
        </mxCell>
        <mxCell id="0MMxQsMHjXonesAsFGLs-3" value="2.backport commit" style="html=1;points=[];perimeter=orthogonalPerimeter;outlineConnect=0;targetShapes=umlLifeline;portConstraint=eastwest;newEdgeStyle={&quot;edgeStyle&quot;:&quot;elbowEdgeStyle&quot;,&quot;elbow&quot;:&quot;vertical&quot;,&quot;curved&quot;:0,&quot;rounded&quot;:0};" vertex="1" parent="aM9ryv3xv72pqoxQDRHE-5">
          <mxGeometry x="45" y="150" width="10" height="60" as="geometry" />
        </mxCell>
        <mxCell id="0MMxQsMHjXonesAsFGLs-5" value="3.update the build msg" style="html=1;points=[];perimeter=orthogonalPerimeter;outlineConnect=0;targetShapes=umlLifeline;portConstraint=eastwest;newEdgeStyle={&quot;edgeStyle&quot;:&quot;elbowEdgeStyle&quot;,&quot;elbow&quot;:&quot;vertical&quot;,&quot;curved&quot;:0,&quot;rounded&quot;:0};" vertex="1" parent="aM9ryv3xv72pqoxQDRHE-5">
          <mxGeometry x="45" y="220" width="10" height="60" as="geometry" />
        </mxCell>
        <mxCell id="0MMxQsMHjXonesAsFGLs-9" value="4.private build" style="html=1;points=[];perimeter=orthogonalPerimeter;outlineConnect=0;targetShapes=umlLifeline;portConstraint=eastwest;newEdgeStyle={&quot;edgeStyle&quot;:&quot;elbowEdgeStyle&quot;,&quot;elbow&quot;:&quot;vertical&quot;,&quot;curved&quot;:0,&quot;rounded&quot;:0};" vertex="1" parent="aM9ryv3xv72pqoxQDRHE-5">
          <mxGeometry x="45" y="290" width="10" height="60" as="geometry" />
        </mxCell>
        <mxCell id="0MMxQsMHjXonesAsFGLs-10" value="5.private test" style="html=1;points=[];perimeter=orthogonalPerimeter;outlineConnect=0;targetShapes=umlLifeline;portConstraint=eastwest;newEdgeStyle={&quot;edgeStyle&quot;:&quot;elbowEdgeStyle&quot;,&quot;elbow&quot;:&quot;vertical&quot;,&quot;curved&quot;:0,&quot;rounded&quot;:0};" vertex="1" parent="aM9ryv3xv72pqoxQDRHE-5">
          <mxGeometry x="45" y="360" width="10" height="60" as="geometry" />
        </mxCell>
        <mxCell id="0MMxQsMHjXonesAsFGLs-16" value="" style="endArrow=classic;html=1;rounded=0;" edge="1" parent="aM9ryv3xv72pqoxQDRHE-5" source="0MMxQsMHjXonesAsFGLs-10" target="0MMxQsMHjXonesAsFGLs-3">
          <mxGeometry relative="1" as="geometry">
            <mxPoint x="60.00380952380965" y="410" as="sourcePoint" />
            <mxPoint x="170" y="100" as="targetPoint" />
            <Array as="points">
              <mxPoint x="170" y="410" />
              <mxPoint x="170" y="200" />
            </Array>
          </mxGeometry>
        </mxCell>
        <mxCell id="0MMxQsMHjXonesAsFGLs-17" value="if failed" style="edgeLabel;resizable=0;html=1;align=center;verticalAlign=middle;" connectable="0" vertex="1" parent="0MMxQsMHjXonesAsFGLs-16">
          <mxGeometry relative="1" as="geometry" />
        </mxCell>
        <mxCell id="0MMxQsMHjXonesAsFGLs-18" value="6.merge code&amp;nbsp;" style="html=1;points=[];perimeter=orthogonalPerimeter;outlineConnect=0;targetShapes=umlLifeline;portConstraint=eastwest;newEdgeStyle={&quot;edgeStyle&quot;:&quot;elbowEdgeStyle&quot;,&quot;elbow&quot;:&quot;vertical&quot;,&quot;curved&quot;:0,&quot;rounded&quot;:0};" vertex="1" parent="aM9ryv3xv72pqoxQDRHE-5">
          <mxGeometry x="45" y="430" width="10" height="60" as="geometry" />
        </mxCell>
        <mxCell id="0MMxQsMHjXonesAsFGLs-23" value="7.prepare iso build env" style="html=1;points=[];perimeter=orthogonalPerimeter;outlineConnect=0;targetShapes=umlLifeline;portConstraint=eastwest;newEdgeStyle={&quot;edgeStyle&quot;:&quot;elbowEdgeStyle&quot;,&quot;elbow&quot;:&quot;vertical&quot;,&quot;curved&quot;:0,&quot;rounded&quot;:0};" vertex="1" parent="aM9ryv3xv72pqoxQDRHE-5">
          <mxGeometry x="45" y="510" width="10" height="70" as="geometry" />
        </mxCell>
        <mxCell id="0MMxQsMHjXonesAsFGLs-25" value="8.promote to rt-yangtze-update" style="html=1;points=[];perimeter=orthogonalPerimeter;outlineConnect=0;targetShapes=umlLifeline;portConstraint=eastwest;newEdgeStyle={&quot;edgeStyle&quot;:&quot;elbowEdgeStyle&quot;,&quot;elbow&quot;:&quot;vertical&quot;,&quot;curved&quot;:0,&quot;rounded&quot;:0};" vertex="1" parent="aM9ryv3xv72pqoxQDRHE-5">
          <mxGeometry x="45" y="590" width="10" height="60" as="geometry" />
        </mxCell>
        <mxCell id="0MMxQsMHjXonesAsFGLs-28" value="9.Dev signed-iso" style="html=1;points=[];perimeter=orthogonalPerimeter;outlineConnect=0;targetShapes=umlLifeline;portConstraint=eastwest;newEdgeStyle={&quot;edgeStyle&quot;:&quot;elbowEdgeStyle&quot;,&quot;elbow&quot;:&quot;vertical&quot;,&quot;curved&quot;:0,&quot;rounded&quot;:0};" vertex="1" parent="aM9ryv3xv72pqoxQDRHE-5">
          <mxGeometry x="45" y="660" width="10" height="60" as="geometry" />
        </mxCell>
        <mxCell id="0MMxQsMHjXonesAsFGLs-29" value="10.Dev test" style="html=1;points=[];perimeter=orthogonalPerimeter;outlineConnect=0;targetShapes=umlLifeline;portConstraint=eastwest;newEdgeStyle={&quot;edgeStyle&quot;:&quot;elbowEdgeStyle&quot;,&quot;elbow&quot;:&quot;vertical&quot;,&quot;curved&quot;:0,&quot;rounded&quot;:0};" vertex="1" parent="aM9ryv3xv72pqoxQDRHE-5">
          <mxGeometry x="45" y="730" width="10" height="60" as="geometry" />
        </mxCell>
        <mxCell id="aM9ryv3xv72pqoxQDRHE-7" value="&amp;nbsp;new requirement of guest" style="html=1;verticalAlign=bottom;endArrow=block;edgeStyle=elbowEdgeStyle;elbow=vertical;curved=0;rounded=0;" parent="1" source="aM9ryv3xv72pqoxQDRHE-2" target="aM9ryv3xv72pqoxQDRHE-6" edge="1">
          <mxGeometry relative="1" as="geometry">
            <mxPoint x="195" y="130" as="sourcePoint" />
            <Array as="points">
              <mxPoint x="180" y="120" />
            </Array>
            <mxPoint as="offset" />
          </mxGeometry>
        </mxCell>
        <mxCell id="0MMxQsMHjXonesAsFGLs-37" value="Linux Guest Cop&lt;br&gt;QA" style="shape=umlLifeline;perimeter=lifelinePerimeter;whiteSpace=wrap;html=1;container=0;dropTarget=0;collapsible=0;recursiveResize=0;outlineConnect=0;portConstraint=eastwest;newEdgeStyle={&quot;edgeStyle&quot;:&quot;elbowEdgeStyle&quot;,&quot;elbow&quot;:&quot;vertical&quot;,&quot;curved&quot;:0,&quot;rounded&quot;:0};" vertex="1" parent="1">
          <mxGeometry x="630" y="40" width="100" height="900" as="geometry" />
        </mxCell>
        <mxCell id="0MMxQsMHjXonesAsFGLs-41" value="11. QA test" style="html=1;points=[];perimeter=orthogonalPerimeter;outlineConnect=0;targetShapes=umlLifeline;portConstraint=eastwest;newEdgeStyle={&quot;edgeStyle&quot;:&quot;elbowEdgeStyle&quot;,&quot;elbow&quot;:&quot;vertical&quot;,&quot;curved&quot;:0,&quot;rounded&quot;:0};" vertex="1" parent="0MMxQsMHjXonesAsFGLs-37">
          <mxGeometry x="42.5" y="810" width="15" height="70" as="geometry" />
        </mxCell>
        <mxCell id="0MMxQsMHjXonesAsFGLs-39" value="LCM team" style="shape=umlLifeline;perimeter=lifelinePerimeter;whiteSpace=wrap;html=1;container=0;dropTarget=0;collapsible=0;recursiveResize=0;outlineConnect=0;portConstraint=eastwest;newEdgeStyle={&quot;edgeStyle&quot;:&quot;elbowEdgeStyle&quot;,&quot;elbow&quot;:&quot;vertical&quot;,&quot;curved&quot;:0,&quot;rounded&quot;:0};" vertex="1" parent="1">
          <mxGeometry x="500" y="40" width="100" height="1235" as="geometry" />
        </mxCell>
        <mxCell id="0MMxQsMHjXonesAsFGLs-40" value="complete HFP msg" style="html=1;points=[];perimeter=orthogonalPerimeter;outlineConnect=0;targetShapes=umlLifeline;portConstraint=eastwest;newEdgeStyle={&quot;edgeStyle&quot;:&quot;elbowEdgeStyle&quot;,&quot;elbow&quot;:&quot;vertical&quot;,&quot;curved&quot;:0,&quot;rounded&quot;:0};" vertex="1" parent="0MMxQsMHjXonesAsFGLs-39">
          <mxGeometry x="42.5" y="530" width="15" height="40" as="geometry" />
        </mxCell>
        <mxCell id="0MMxQsMHjXonesAsFGLs-60" value="12.release signed" style="html=1;points=[];perimeter=orthogonalPerimeter;outlineConnect=0;targetShapes=umlLifeline;portConstraint=eastwest;newEdgeStyle={&quot;edgeStyle&quot;:&quot;elbowEdgeStyle&quot;,&quot;elbow&quot;:&quot;vertical&quot;,&quot;curved&quot;:0,&quot;rounded&quot;:0};" vertex="1" parent="0MMxQsMHjXonesAsFGLs-39">
          <mxGeometry x="42.5" y="900" width="15" height="70" as="geometry" />
        </mxCell>
        <mxCell id="0MMxQsMHjXonesAsFGLs-61" value="13.publish review" style="html=1;points=[];perimeter=orthogonalPerimeter;outlineConnect=0;targetShapes=umlLifeline;portConstraint=eastwest;newEdgeStyle={&quot;edgeStyle&quot;:&quot;elbowEdgeStyle&quot;,&quot;elbow&quot;:&quot;vertical&quot;,&quot;curved&quot;:0,&quot;rounded&quot;:0};" vertex="1" parent="0MMxQsMHjXonesAsFGLs-39">
          <mxGeometry x="42.5" y="980" width="15" height="45" as="geometry" />
        </mxCell>
        <mxCell id="0MMxQsMHjXonesAsFGLs-42" value="" style="endArrow=classic;html=1;rounded=0;" edge="1" parent="1">
          <mxGeometry width="50" height="50" relative="1" as="geometry">
            <mxPoint x="355" y="580" as="sourcePoint" />
            <mxPoint x="542.5" y="580" as="targetPoint" />
          </mxGeometry>
        </mxCell>
        <mxCell id="0MMxQsMHjXonesAsFGLs-43" value="" style="endArrow=classic;html=1;rounded=0;" edge="1" parent="1" target="0MMxQsMHjXonesAsFGLs-37">
          <mxGeometry width="50" height="50" relative="1" as="geometry">
            <mxPoint x="349.81034482758605" y="839.9999999999998" as="sourcePoint" />
            <mxPoint x="672.5" y="839.9999999999998" as="targetPoint" />
          </mxGeometry>
        </mxCell>
        <mxCell id="0MMxQsMHjXonesAsFGLs-47" value="" style="endArrow=classic;html=1;rounded=0;" edge="1" parent="1" source="0MMxQsMHjXonesAsFGLs-40">
          <mxGeometry width="50" height="50" relative="1" as="geometry">
            <mxPoint x="540" y="610" as="sourcePoint" />
            <mxPoint x="355" y="610" as="targetPoint" />
          </mxGeometry>
        </mxCell>
        <mxCell id="0MMxQsMHjXonesAsFGLs-49" value="" style="endArrow=classic;html=1;rounded=0;" edge="1" parent="1">
          <mxGeometry relative="1" as="geometry">
            <mxPoint x="355" y="749.9999999999998" as="sourcePoint" />
            <mxPoint x="549.5" y="749.9999999999998" as="targetPoint" />
          </mxGeometry>
        </mxCell>
        <mxCell id="0MMxQsMHjXonesAsFGLs-50" value="Label" style="edgeLabel;resizable=0;html=1;align=center;verticalAlign=middle;" connectable="0" vertex="1" parent="0MMxQsMHjXonesAsFGLs-49">
          <mxGeometry relative="1" as="geometry" />
        </mxCell>
        <mxCell id="0MMxQsMHjXonesAsFGLs-51" value="StartD" style="edgeLabel;html=1;align=center;verticalAlign=middle;resizable=0;points=[];" vertex="1" connectable="0" parent="0MMxQsMHjXonesAsFGLs-49">
          <mxGeometry x="0.001" y="1" relative="1" as="geometry">
            <mxPoint as="offset" />
          </mxGeometry>
        </mxCell>
        <mxCell id="0MMxQsMHjXonesAsFGLs-52" value="Update ticket status" style="edgeLabel;html=1;align=center;verticalAlign=middle;resizable=0;points=[];" vertex="1" connectable="0" parent="0MMxQsMHjXonesAsFGLs-49">
          <mxGeometry x="0.013" y="1" relative="1" as="geometry">
            <mxPoint x="-4" as="offset" />
          </mxGeometry>
        </mxCell>
        <mxCell id="0MMxQsMHjXonesAsFGLs-53" value="" style="endArrow=none;dashed=1;html=1;rounded=0;" edge="1" parent="1" target="0MMxQsMHjXonesAsFGLs-41">
          <mxGeometry width="50" height="50" relative="1" as="geometry">
            <mxPoint x="680" y="1200" as="sourcePoint" />
            <mxPoint x="680" y="1040" as="targetPoint" />
            <Array as="points">
              <mxPoint x="680" y="1060" />
            </Array>
          </mxGeometry>
        </mxCell>
        <mxCell id="0MMxQsMHjXonesAsFGLs-57" value="" style="endArrow=classic;html=1;rounded=0;" edge="1" parent="1">
          <mxGeometry relative="1" as="geometry">
            <mxPoint x="680" y="930" as="sourcePoint" />
            <mxPoint x="549.810344827586" y="929.9999999999998" as="targetPoint" />
          </mxGeometry>
        </mxCell>
        <mxCell id="0MMxQsMHjXonesAsFGLs-58" value="Label" style="edgeLabel;resizable=0;html=1;align=center;verticalAlign=middle;" connectable="0" vertex="1" parent="0MMxQsMHjXonesAsFGLs-57">
          <mxGeometry relative="1" as="geometry" />
        </mxCell>
        <mxCell id="0MMxQsMHjXonesAsFGLs-59" value="request sigined" style="edgeLabel;html=1;align=center;verticalAlign=middle;resizable=0;points=[];" vertex="1" connectable="0" parent="0MMxQsMHjXonesAsFGLs-57">
          <mxGeometry x="-0.0407" y="3" relative="1" as="geometry">
            <mxPoint y="-3" as="offset" />
          </mxGeometry>
        </mxCell>
        <mxCell id="0MMxQsMHjXonesAsFGLs-62" value="Doc team" style="shape=umlLifeline;perimeter=lifelinePerimeter;whiteSpace=wrap;html=1;container=0;dropTarget=0;collapsible=0;recursiveResize=0;outlineConnect=0;portConstraint=eastwest;newEdgeStyle={&quot;edgeStyle&quot;:&quot;elbowEdgeStyle&quot;,&quot;elbow&quot;:&quot;vertical&quot;,&quot;curved&quot;:0,&quot;rounded&quot;:0};" vertex="1" parent="1">
          <mxGeometry x="750" y="40" width="100" height="1260" as="geometry" />
        </mxCell>
        <mxCell id="0MMxQsMHjXonesAsFGLs-63" value="14. prepare doc" style="html=1;points=[];perimeter=orthogonalPerimeter;outlineConnect=0;targetShapes=umlLifeline;portConstraint=eastwest;newEdgeStyle={&quot;edgeStyle&quot;:&quot;elbowEdgeStyle&quot;,&quot;elbow&quot;:&quot;vertical&quot;,&quot;curved&quot;:0,&quot;rounded&quot;:0};" vertex="1" parent="0MMxQsMHjXonesAsFGLs-62">
          <mxGeometry x="42.5" y="1040" width="15" height="70" as="geometry" />
        </mxCell>
        <mxCell id="0MMxQsMHjXonesAsFGLs-64" value="" style="endArrow=classic;html=1;rounded=0;" edge="1" parent="1" source="0MMxQsMHjXonesAsFGLs-39">
          <mxGeometry width="50" height="50" relative="1" as="geometry">
            <mxPoint x="555.1503448275861" y="1069.9999999999998" as="sourcePoint" />
            <mxPoint x="804.84" y="1069.9999999999998" as="targetPoint" />
            <Array as="points">
              <mxPoint x="745.34" y="1070" />
            </Array>
          </mxGeometry>
        </mxCell>
        <mxCell id="0MMxQsMHjXonesAsFGLs-65" value="" style="endArrow=classic;html=1;rounded=0;" edge="1" parent="1" source="0MMxQsMHjXonesAsFGLs-62">
          <mxGeometry relative="1" as="geometry">
            <mxPoint x="792.5" y="1159.9999999999998" as="sourcePoint" />
            <mxPoint x="680" y="1160" as="targetPoint" />
          </mxGeometry>
        </mxCell>
        <mxCell id="0MMxQsMHjXonesAsFGLs-66" value="Label" style="edgeLabel;resizable=0;html=1;align=center;verticalAlign=middle;" connectable="0" vertex="1" parent="0MMxQsMHjXonesAsFGLs-65">
          <mxGeometry relative="1" as="geometry" />
        </mxCell>
        <mxCell id="0MMxQsMHjXonesAsFGLs-67" value="15. Doc review&amp;nbsp;" style="edgeLabel;html=1;align=center;verticalAlign=middle;resizable=0;points=[];" vertex="1" connectable="0" parent="0MMxQsMHjXonesAsFGLs-65">
          <mxGeometry x="0.0424" y="-1" relative="1" as="geometry">
            <mxPoint as="offset" />
          </mxGeometry>
        </mxCell>
        <mxCell id="0MMxQsMHjXonesAsFGLs-68" value="" style="endArrow=classic;html=1;rounded=0;" edge="1" parent="1" target="0MMxQsMHjXonesAsFGLs-39">
          <mxGeometry relative="1" as="geometry">
            <mxPoint x="800" y="1170" as="sourcePoint" />
            <mxPoint x="690" y="1170" as="targetPoint" />
          </mxGeometry>
        </mxCell>
        <mxCell id="0MMxQsMHjXonesAsFGLs-69" value="Label" style="edgeLabel;resizable=0;html=1;align=center;verticalAlign=middle;" connectable="0" vertex="1" parent="0MMxQsMHjXonesAsFGLs-68">
          <mxGeometry relative="1" as="geometry" />
        </mxCell>
        <mxCell id="0MMxQsMHjXonesAsFGLs-70" value="16. Doc review&amp;nbsp;" style="edgeLabel;html=1;align=center;verticalAlign=middle;resizable=0;points=[];" vertex="1" connectable="0" parent="0MMxQsMHjXonesAsFGLs-68">
          <mxGeometry x="0.0424" y="-1" relative="1" as="geometry">
            <mxPoint as="offset" />
          </mxGeometry>
        </mxCell>
        <mxCell id="0MMxQsMHjXonesAsFGLs-71" value="Doc team" style="shape=umlLifeline;perimeter=lifelinePerimeter;whiteSpace=wrap;html=1;container=0;dropTarget=0;collapsible=0;recursiveResize=0;outlineConnect=0;portConstraint=eastwest;newEdgeStyle={&quot;edgeStyle&quot;:&quot;elbowEdgeStyle&quot;,&quot;elbow&quot;:&quot;vertical&quot;,&quot;curved&quot;:0,&quot;rounded&quot;:0};" vertex="1" parent="1">
          <mxGeometry x="870" y="40" width="100" height="1260" as="geometry" />
        </mxCell>
        <mxCell id="0MMxQsMHjXonesAsFGLs-72" value="17.C-FU test" style="html=1;points=[];perimeter=orthogonalPerimeter;outlineConnect=0;targetShapes=umlLifeline;portConstraint=eastwest;newEdgeStyle={&quot;edgeStyle&quot;:&quot;elbowEdgeStyle&quot;,&quot;elbow&quot;:&quot;vertical&quot;,&quot;curved&quot;:0,&quot;rounded&quot;:0};" vertex="1" parent="0MMxQsMHjXonesAsFGLs-71">
          <mxGeometry x="42.5" y="1165" width="15" height="70" as="geometry" />
        </mxCell>
        <mxCell id="0MMxQsMHjXonesAsFGLs-73" value="" style="endArrow=classic;html=1;rounded=0;" edge="1" parent="1">
          <mxGeometry width="50" height="50" relative="1" as="geometry">
            <mxPoint x="550" y="1190" as="sourcePoint" />
            <mxPoint x="919.5" y="1190" as="targetPoint" />
          </mxGeometry>
        </mxCell>
        <mxCell id="0MMxQsMHjXonesAsFGLs-74" value="" style="endArrow=classic;html=1;rounded=0;" edge="1" parent="1" source="0MMxQsMHjXonesAsFGLs-71">
          <mxGeometry relative="1" as="geometry">
            <mxPoint x="350" y="1280" as="sourcePoint" />
            <mxPoint x="240" y="1280" as="targetPoint" />
          </mxGeometry>
        </mxCell>
        <mxCell id="0MMxQsMHjXonesAsFGLs-75" value="Label" style="edgeLabel;resizable=0;html=1;align=center;verticalAlign=middle;" connectable="0" vertex="1" parent="0MMxQsMHjXonesAsFGLs-74">
          <mxGeometry relative="1" as="geometry" />
        </mxCell>
        <mxCell id="0MMxQsMHjXonesAsFGLs-76" value="provide to customer" style="edgeLabel;html=1;align=center;verticalAlign=middle;resizable=0;points=[];" vertex="1" connectable="0" parent="0MMxQsMHjXonesAsFGLs-74">
          <mxGeometry x="-0.0037" y="3" relative="1" as="geometry">
            <mxPoint as="offset" />
          </mxGeometry>
        </mxCell>
      </root>
    </mxGraphModel>
  </diagram>
</mxfile>
